<?xml version="1.0" standalone="no"?>
<!DOCTYPE svg PUBLIC "-//W3C//DTD SVG 20010904//EN"
 "http://www.w3.org/TR/2001/REC-SVG-20010904/DTD/svg10.dtd">
<svg version="1.0" xmlns="http://www.w3.org/2000/svg"
 width="1280.000000pt" height="640.000000pt" viewBox="0 0 1280.000000 640.000000"
 preserveAspectRatio="xMidYMid meet">
<metadata>
Created by potrace 1.15, written by Peter Selinger 2001-2017
</metadata>
<g transform="translate(0.000000,640.000000) scale(0.100000,-0.100000)"
fill="#000000" stroke="none">
<path d="M10190 3783 c110 -119 198 -293 217 -428 l6 -45 -5152 0 -5151 0 0
-110 0 -110 5150 0 c4920 0 5150 -1 5150 -18 0 -31 -40 -162 -69 -227 -40 -87
-82 -148 -155 -222 -33 -35 -56 -63 -50 -63 14 0 2645 638 2650 643 2 1 -587
146 -1309 321 -722 174 -1321 320 -1332 323 -12 3 6 -22 45 -64z"/>
</g>
</svg>
